<?xml version="1.0" encoding="UTF-8"?><svg id="Layer_2" xmlns="http://www.w3.org/2000/svg" viewBox="0 0 277.1 43.35"><defs><style>.cls-1{fill:#434444;}.cls-2{fill:#436ab3;}</style></defs><g id="Layer_1-2"><path id="Union_1" class="cls-1" d="M42.4,38.35c1.01-.47,1.93-1.12,2.7-1.92,.61-.7,1.02-1.54,1.2-2.45,.23-1.3,.33-2.61,.3-3.92V.8h7.05V30.3c0,3.73-.83,6.56-2.5,8.47-1.88,2.06-4.23,3.63-6.85,4.58l-1.9-5Zm98.22-3.42c-1.78-.87-3.38-2.07-4.73-3.52l3.45-3.8c1.02,.97,2.18,1.78,3.43,2.42,1.11,.55,2.34,.83,3.57,.83,1.27,.08,2.5-.4,3.38-1.33,.82-1,1.24-2.28,1.18-3.57,.05-1.21-.34-2.39-1.1-3.33-1.14-1.11-2.5-1.95-4-2.48-2.54-.91-4.84-2.4-6.7-4.35-1.37-1.71-2.08-3.86-2-6.05-.09-3.58,1.9-6.89,5.1-8.5,1.67-.85,3.53-1.28,5.4-1.25,1.89-.04,3.77,.34,5.5,1.1,1.66,.78,3.14,1.88,4.35,3.25l-3.2,3.7c-1.56-1.67-3.72-2.66-6-2.75-1.06-.05-2.09,.33-2.85,1.07-.72,.78-1.1,1.81-1.05,2.88-.03,1.08,.38,2.13,1.15,2.9,1.29,1.07,2.76,1.9,4.35,2.45,1.66,.65,3.23,1.51,4.68,2.55,1.17,.88,2.11,2.03,2.75,3.35,.7,1.55,1.03,3.25,.98,4.95,.03,1.92-.46,3.82-1.4,5.5-.94,1.64-2.33,2.97-4,3.85-1.87,.97-3.95,1.45-6.05,1.4-2.13,.05-4.24-.39-6.18-1.28Zm-23.43,.48V.8h17.75l-.75,5.15h-9.9V15.25h8.65v5.1h-8.65v9.85h10.55v5.2h-17.65Zm-11.05,0l-.45-14.2-.1-3.05c-.03-1.03-.07-2.23-.1-3.6-.03-1.37-.05-2.87-.05-4.5l.05-2.85-4.3,24.45h-6.65l-4.55-24.45c.1,2.2,.15,4.38,.15,6.55,0,2.47-.05,5-.15,7.6l-.45,14.05h-6.6L85.1,.8h8.75l4.15,24.05L101.8,.8h8.9l2.15,34.6h-6.7Zm-31.8,0l-1.55-7.9h-8.3l-1.55,7.9h-7L64.5,.8h8.5l8.5,34.6h-7.15Zm-8.85-13.05h6.3l-3.15-16.3-3.15,16.3Z"/><polygon class="cls-2" points="180.1 1 179.35 6.45 172.45 6.45 172.45 35.6 165.4 35.6 165.4 6.45 158.15 6.45 158.15 1 180.1 1"/><path class="cls-2" d="M198.65,20.55c1.73-.77,3.16-2.07,4.08-3.72,.9-1.7,1.36-3.6,1.33-5.53,0-6.87-4.22-10.3-12.65-10.3h-8.7V35.6h7.1v-13.7h2.6l5.9,13.7h7.55l-7.2-15.05Zm-3.05-4.95c-1.06,1-2.5,1.49-3.95,1.35h-1.85V6.05h1.55c1.51-.14,3.01,.32,4.17,1.28,.94,1.1,1.4,2.53,1.28,3.97,.13,1.53-.29,3.06-1.2,4.3Z"/><polygon class="cls-2" points="226.15 1 225.4 6.15 215.5 6.15 215.5 15.45 224.15 15.45 224.15 20.55 215.5 20.55 215.5 30.4 226.05 30.4 226.05 35.6 208.4 35.6 208.4 1 226.15 1"/><path class="cls-2" d="M252.2,35.6h-8.8l-8.1-27.9,.15,1.4c.23,2.2,.43,4.25,.57,6.15,.15,1.9,.22,4.07,.23,6.5v13.85h-6.2V1h8.8l8.15,27.95c-.27-1.47-.5-3.31-.7-5.52s-.3-4.49-.3-6.83V1h6.2V35.6Z"/><polygon class="cls-2" points="277.1 1 276.35 6.45 269.45 6.45 269.45 35.6 262.4 35.6 262.4 6.45 255.15 6.45 255.15 1 277.1 1"/><path class="cls-2" d="M0,19.4C0,10.01,7.61,2.4,17,2.4s17,7.61,17,17-7.61,17-17,17S0,28.79,0,19.4H0Z"/></g></svg>